<svg width="38" height="38" viewBox="0 0 38 38" fill="none" xmlns="http://www.w3.org/2000/svg">
<path fill-rule="evenodd" clip-rule="evenodd" d="M0 18.75C0 8.4 8.38125 0 18.7312 0C29.1 0 37.5 8.4 37.5 18.75C37.5 29.1 29.1 37.5 18.7312 37.5C8.38125 37.5 0 29.1 0 18.75ZM12.1875 11.25C10.6342 11.25 9.375 12.5092 9.375 14.0625C9.375 15.6158 10.6342 16.875 12.1875 16.875C13.7408 16.875 15 15.6158 15 14.0625C15 12.5092 13.7408 11.25 12.1875 11.25ZM25.3125 11.25C23.7592 11.25 22.5 12.5092 22.5 14.0625C22.5 15.6158 23.7592 16.875 25.3125 16.875C26.8658 16.875 28.125 15.6158 28.125 14.0625C28.125 12.5092 26.8658 11.25 25.3125 11.25ZM18.75 33.75C10.4625 33.75 3.75 27.0375 3.75 18.75C3.75 10.4625 10.4625 3.75 18.75 3.75C27.0375 3.75 33.75 10.4625 33.75 18.75C33.75 27.0375 27.0375 33.75 18.75 33.75ZM25.0874 22.7438C25.4812 22.0875 26.3624 21.8813 27.0187 22.2938C27.6749 22.7063 27.8812 23.5688 27.4687 24.225C25.5562 27.2438 22.3124 29.0625 18.7499 29.0625C15.1874 29.0625 11.9437 27.2625 10.0312 24.2063C9.61867 23.55 9.82492 22.6875 10.4812 22.275C11.1374 21.8625 11.9999 22.0688 12.4124 22.725C13.7999 24.9375 16.1624 26.25 18.7499 26.25C21.3374 26.25 23.6999 24.9375 25.0874 22.7438Z" fill="url(#paint0_linear_54_12)"/>
<defs>
<linearGradient id="paint0_linear_54_12" x1="0" y1="56.278" x2="33.9845" y2="56.278" gradientUnits="userSpaceOnUse">
<stop stop-color="#F55F8D"/>
<stop offset="1" stop-color="#F8AE56"/>
</linearGradient>
</defs>
</svg>
