<svg width="38" height="38" viewBox="0 0 38 38" fill="none" xmlns="http://www.w3.org/2000/svg">
<path fill-rule="evenodd" clip-rule="evenodd" d="M0 18.75C0 8.4 8.38125 0 18.7312 0C29.1 0 37.5 8.4 37.5 18.75C37.5 29.1 29.1 37.5 18.7312 37.5C8.38125 37.5 0 29.1 0 18.75ZM12.1875 11.25C10.6342 11.25 9.375 12.5092 9.375 14.0625C9.375 15.6158 10.6342 16.875 12.1875 16.875C13.7408 16.875 15 15.6158 15 14.0625C15 12.5092 13.7408 11.25 12.1875 11.25ZM25.3125 11.25C23.7592 11.25 22.5 12.5092 22.5 14.0625C22.5 15.6158 23.7592 16.875 25.3125 16.875C26.8658 16.875 28.125 15.6158 28.125 14.0625C28.125 12.5092 26.8658 11.25 25.3125 11.25ZM18.75 33.75C10.4625 33.75 3.75 27.0375 3.75 18.75C3.75 10.4625 10.4625 3.75 18.75 3.75C27.0375 3.75 33.75 10.4625 33.75 18.75C33.75 27.0375 27.0375 33.75 18.75 33.75ZM10.0312 27.3375C11.9437 24.3188 15.1874 22.5 18.7499 22.5C22.3124 22.5 25.5562 24.3 27.4874 27.3375C27.8999 27.9937 27.6937 28.8563 27.0374 29.2688C26.7937 29.4 26.5499 29.475 26.2874 29.475C25.8187 29.475 25.3499 29.25 25.0874 28.8188C23.6999 26.6063 21.3374 25.2938 18.7499 25.2938C16.1624 25.2938 13.7999 26.6063 12.4124 28.8188C11.9999 29.475 11.1374 29.6812 10.4812 29.2688C9.82492 28.8563 9.61867 27.9937 10.0312 27.3375Z" fill="#858C94"/>
</svg>
